<?xml version="1.0" encoding="UTF-8" standalone="no"?>
<svg
   xmlns:dc="http://purl.org/dc/elements/1.1/"
   xmlns:cc="http://creativecommons.org/ns#"
   xmlns:rdf="http://www.w3.org/1999/02/22-rdf-syntax-ns#"
   xmlns:svg="http://www.w3.org/2000/svg"
   xmlns="http://www.w3.org/2000/svg"
   id="svg2"
   style="clip-rule:evenodd;fill-rule:evenodd;stroke-linejoin:round;stroke-miterlimit:1.41420996"
   xml:space="preserve"
   version="1.1"
   viewBox="0 0 2732 1000"
   height="900"
   width="2732"><metadata
     id="metadata32"><rdf:RDF><cc:Work
         rdf:about=""><dc:format>image/svg+xml</dc:format><dc:type
           rdf:resource="http://purl.org/dc/dcmitype/StillImage" /><dc:title></dc:title></cc:Work></rdf:RDF></metadata><defs
     id="defs30" /><g
     id="g4"
     transform="matrix(0.996777,0,0,0.0969293,-52.7486,154.11805)"><rect
       id="rect6"
       style="fill:#69bac9"
       height="31.775"
       width="2778.4399"
       y="534.828"
       x="15.309" /></g><g
     id="g8"
     transform="matrix(1.10349,0,0,0.930542,-314.278,102.74505)"><rect
       id="rect10"
       style="fill:#e4e4e4"
       height="640.57202"
       width="1855.9301"
       y="114.228"
       x="594.729" /></g><g
     id="g12"
     transform="matrix(0.996777,0,0,0.0969293,-52.7486,753.85905)"><rect
       id="rect14"
       style="fill:#69bac9"
       height="31.775"
       width="2778.4399"
       y="534.828"
       x="15.309" /></g><g
     id="g16"
     transform="matrix(1.00133,0,0,0.721142,-66.3077,189.20105)"><rect
       id="rect18"
       style="fill:#a5a5a5"
       height="552.94098"
       width="629.164"
       y="164.327"
       x="471.681" /></g><g
     id="g20"
     transform="matrix(2.00266,0,0,0.721142,121.385,189.20105)"><rect
       id="rect22"
       style="fill:#a5a5a5"
       height="552.94098"
       width="629.164"
       y="164.327"
       x="471.681" /></g><g
     id="g24"
     transform="matrix(1.3933543,0,0,1.3933543,849.85242,-83.506421)"><text
       id="text26"
       style="font-size:68px;font-family:ArialMT, Arial, sans-serif"
       y="174.076"
       x="276.155">.thirds</text>
</g></svg>
